<?xml version="1.0" encoding="utf-8"?>
<!-- Generator: Adobe Illustrator 19.2.1, SVG Export Plug-In . SVG Version: 6.00 Build 0)  -->
<svg version="1.1" id="Layer_1" xmlns="http://www.w3.org/2000/svg" xmlns:xlink="http://www.w3.org/1999/xlink" x="0px" y="0px"
	 viewBox="0 0 60 60" enable-background="new 0 0 60 60" xml:space="preserve">
<g>
	<path d="M42.759,27.05c-0.383,0.156-0.568,0.594-0.411,0.978c0.821,2.016,1.238,4.179,1.238,6.428c0,2.25-0.417,4.412-1.237,6.427
		c-0.157,0.384,0.028,0.821,0.411,0.978c0.093,0.038,0.188,0.056,0.283,0.056c0.296,0,0.577-0.176,0.695-0.467
		c0.895-2.195,1.349-4.548,1.349-6.993s-0.454-4.798-1.349-6.995C43.581,27.078,43.144,26.892,42.759,27.05z"/>
	<path d="M43.92,23.122c-0.185-0.058-0.38-0.025-0.467-0.004l-1.866,0.656c-3.13-3.649-7.63-5.748-12.456-5.748
		c-9.06,0-16.43,7.37-16.43,16.43s7.371,16.43,16.43,16.43c4.826,0,9.326-2.099,12.456-5.748l1.866,0.655
		c0.003,0.001,0.006,0,0.008,0.001c0.079,0.027,0.326,0.063,0.529-0.016c0.173-0.068,0.316-0.246,0.318-0.249
		c2.361-3.23,3.609-7.059,3.609-11.073c0-4.012-1.247-7.84-3.607-11.07C44.301,23.372,44.175,23.201,43.92,23.122z M43.406,44.187
		l-1.793-0.629c-0.043-0.01-0.227-0.083-0.476-0.012c-0.241,0.068-0.352,0.245-0.357,0.25c-2.852,3.553-7.098,5.59-11.648,5.59
		c-8.232,0-14.93-6.698-14.93-14.93s6.698-14.93,14.93-14.93c4.55,0,8.795,2.037,11.647,5.589c0.004,0.005,0.208,0.221,0.433,0.266
		c0.164,0.033,0.3,0.008,0.4-0.027l1.793-0.63c1.965,2.875,3.012,6.223,3.012,9.731C46.418,37.964,45.371,41.312,43.406,44.187z"/>
	<path d="M39.689,33.988c-3.349,1.707-7.345,1.707-10.693,0c-3.774-1.923-8.28-1.923-12.055,0c-0.369,0.188-0.516,0.64-0.328,1.009
		c0.189,0.37,0.641,0.515,1.009,0.328c3.348-1.706,7.346-1.706,10.693,0c1.887,0.961,3.957,1.442,6.027,1.442
		s4.141-0.481,6.027-1.442c0.369-0.188,0.516-0.64,0.328-1.009C40.509,33.947,40.057,33.801,39.689,33.988z"/>
	<path d="M29.83,12.003c1.369,0,2.482-1.114,2.482-2.482c0-1.369-1.114-2.483-2.482-2.483c-1.369,0-2.483,1.114-2.483,2.483
		C27.347,10.889,28.46,12.003,29.83,12.003z M29.83,8.538c0.542,0,0.982,0.441,0.982,0.983c0,0.542-0.441,0.982-0.982,0.982
		c-0.542,0-0.983-0.441-0.983-0.982C28.847,8.979,29.288,8.538,29.83,8.538z"/>
	<path d="M38.137,11.72h8.064c0.551,0,1-0.449,1-1V8.321c0-0.551-0.449-1-1-1h-8.064c-0.551,0-1,0.449-1,1v2.398
		C37.137,11.271,37.585,11.72,38.137,11.72z M38.637,8.821h7.064v1.398h-7.064V8.821z"/>
	<path d="M51.464,4.25H8.195c-0.414,0-0.75,0.336-0.75,0.75v50c0,0.414,0.336,0.75,0.75,0.75h43.269c0.414,0,0.75-0.336,0.75-0.75V5
		C52.214,4.586,51.878,4.25,51.464,4.25z M50.714,5.75v7.541H8.945V5.75H50.714z M8.945,54.25V14.791h41.769V54.25H8.945z"/>
</g>
</svg>
