<?xml version="1.0" encoding="utf-8"?>
<!-- Generator: Adobe Illustrator 19.2.1, SVG Export Plug-In . SVG Version: 6.00 Build 0)  -->
<svg version="1.1" id="Layer_1" xmlns="http://www.w3.org/2000/svg" xmlns:xlink="http://www.w3.org/1999/xlink" x="0px" y="0px"
	 viewBox="0 0 60 60" enable-background="new 0 0 60 60" xml:space="preserve">
<g>
	<path d="M48.812,16.348c-0.004-0.05-0.015-0.097-0.03-0.147c-0.015-0.049-0.031-0.095-0.054-0.14
		c-0.01-0.019-0.011-0.039-0.022-0.058l-2.5-3.901v-7.07c0-0.414-0.336-0.75-0.75-0.75H14.546c-0.414,0-0.75,0.336-0.75,0.75v7.086
		l-2.545,3.878c-0.013,0.019-0.014,0.041-0.025,0.061c-0.024,0.044-0.041,0.09-0.056,0.139c-0.015,0.05-0.026,0.097-0.03,0.148
		c-0.002,0.022-0.013,0.041-0.013,0.064v38.625c0,0.414,0.336,0.75,0.75,0.75h36.195c0.414,0,0.75-0.336,0.75-0.75V16.409
		C48.824,16.387,48.813,16.369,48.812,16.348z M14.958,13.083h30.094l1.65,2.576H13.268L14.958,13.083z M15.296,5.783h29.409v5.8
		H15.296V5.783z M47.324,54.283H12.628V17.159h34.695V54.283z"/>
	<path d="M16.279,31.512c4.189-2.135,9.191-2.135,13.381,0c2.308,1.176,4.839,1.764,7.371,1.764s5.063-0.588,7.371-1.764
		c0.369-0.188,0.516-0.64,0.328-1.009c-0.188-0.37-0.64-0.515-1.009-0.328c-4.189,2.136-9.191,2.136-13.381,0
		c-4.615-2.352-10.127-2.352-14.742,0c-0.369,0.188-0.516,0.64-0.328,1.009C15.459,31.553,15.912,31.698,16.279,31.512z"/>
	<path d="M30.001,6.838c-1.017,0-1.845,0.828-1.845,1.845s0.828,1.844,1.845,1.844s1.844-0.827,1.844-1.844
		S31.018,6.838,30.001,6.838z M30.001,9.327c-0.355,0-0.645-0.289-0.645-0.644c0-0.355,0.289-0.645,0.645-0.645
		c0.355,0,0.644,0.289,0.644,0.645C30.645,9.038,30.356,9.327,30.001,9.327z"/>
	<path d="M41.488,6.986h-5.551c-0.469,0-0.85,0.381-0.85,0.85v1.693c0,0.469,0.381,0.85,0.85,0.85h5.551
		c0.469,0,0.85-0.381,0.85-0.85V7.836C42.338,7.368,41.957,6.986,41.488,6.986z M41.138,9.179h-4.851V8.187h4.851V9.179z"/>
</g>
</svg>
